<svg width="16" height="16" viewBox="0 0 16 16" fill="none" xmlns="http://www.w3.org/2000/svg">
<g clip-path="url(#clip0_6_138)">
<path d="M8 15C11.866 15 15 11.866 15 8C15 4.13401 11.866 1 8 1C4.13401 1 1 4.13401 1 8C1 11.866 4.13401 15 8 15Z" stroke="black"/>
<path d="M5 5V12" stroke="#333333" stroke-width="0.8"/>
<mask id="mask0_6_138" style="mask-type:alpha" maskUnits="userSpaceOnUse" x="4" y="4" width="9" height="6">
<path d="M5 5H12V9H8.76923H5V5Z" fill="white" stroke="#333333" stroke-width="0.3"/>
</mask>
<g mask="url(#mask0_6_138)">
<rect x="5" y="5" width="8" height="4" fill="white"/>
<path d="M11 6H9V7H11V6Z" fill="black"/>
<path d="M9 5H7V6H9V5Z" fill="black"/>
<path d="M7 6H6V7H7V6Z" fill="black"/>
<path d="M6 7H5V8H6V7Z" fill="black"/>
<path d="M9 7H7V8H9V7Z" fill="black"/>
<path d="M7 8H6V9H7V8Z" fill="black"/>
<path d="M6 5H5V6H6V5Z" fill="black"/>
<path d="M13 7H11V8H13V7Z" fill="black"/>
<path d="M11 8H9V9H11V8Z" fill="black"/>
<path d="M13 5H11V6H13V5Z" fill="black"/>
</g>
</g>
<defs>
<clipPath id="clip0_6_138">
<rect width="16" height="16" fill="white"/>
</clipPath>
</defs>
</svg>
