<svg width="29" height="29" viewBox="0 0 29 29" fill="none" xmlns="http://www.w3.org/2000/svg">
<path d="M15 27C21.6274 27 27 21.6274 27 15C27 8.37258 21.6274 3 15 3C8.37258 3 3 8.37258 3 15C3 21.6274 8.37258 27 15 27Z" fill="#F4F4F4" stroke="#6A5B8F"/>
<path d="M9.0625 9.0625V21.75" stroke="#333333" stroke-width="0.8"/>
<mask id="mask0_6_138" style="mask-type:alpha" maskUnits="userSpaceOnUse" x="8" y="8" width="14" height="9">
<path d="M9.0625 9.0625H21.75V16.3125H15.8942H9.0625V9.0625Z" fill="white" stroke="#333333" stroke-width="0.3"/>
</mask>
<g mask="url(#mask0_6_138)">
<rect x="9.0625" y="9.0625" width="14.5" height="7.25" fill="white"/>
<path d="M19.9375 10.875H16.3125V12.6875H19.9375V10.875Z" fill="black"/>
<path d="M16.3125 9.0625H12.6875V10.875H16.3125V9.0625Z" fill="black"/>
<path d="M12.6875 10.875H10.875V12.6875H12.6875V10.875Z" fill="black"/>
<path d="M10.875 12.6875H9.0625V14.5H10.875V12.6875Z" fill="black"/>
<path d="M16.3125 12.6875H12.6875V14.5H16.3125V12.6875Z" fill="black"/>
<path d="M12.6875 14.5H10.875V16.3125H12.6875V14.5Z" fill="black"/>
<path d="M10.875 9.0625H9.0625V10.875H10.875V9.0625Z" fill="black"/>
<path d="M23.5625 12.6875H19.9375V14.5H23.5625V12.6875Z" fill="black"/>
<path d="M19.9375 14.5H16.3125V16.3125H19.9375V14.5Z" fill="black"/>
<path d="M23.5625 9.0625H19.9375V10.875H23.5625V9.0625Z" fill="black"/>
</g>
</svg>
