<svg width="16" height="14" viewBox="0 0 16 14" fill="none" xmlns="http://www.w3.org/2000/svg">
<path d="M0 10.4403C2.16146 9.67589 4.35196 9.90653 6.49609 11.1317C7.11436 11.485 7.72673 11.7284 8.33594 11.8661L6.08984 11.8407L5.69531 11.8368C5.79634 11.8895 5.89897 11.9422 6 11.9999C8.18746 13.2498 10.375 13.328 12.5625 12.2343L13 11.9999C13.048 11.9725 13.0975 11.948 13.1455 11.9218L12.9541 11.9188L10.541 11.8915C11.1909 11.7601 11.8441 11.5088 12.5039 11.1317C13.6598 10.4712 14.8291 10.0988 16 10.0165V12.0272C15.1709 12.1079 14.3393 12.3862 13.4961 12.868C10.8554 14.377 8.14463 14.377 5.50391 12.868C3.64612 11.8065 1.84804 11.7209 0 12.6063V10.4403ZM9.5 7.99988C10.8804 7.99988 11.9994 8.71614 12 9.59949L11.9873 9.76355C11.8591 10.5703 10.7943 11.2001 9.5 11.2001L9.24414 11.1913C7.98372 11.1093 7.00013 10.4278 7 9.59949C7.00057 8.71614 8.11964 7.99988 9.5 7.99988ZM9.5 9.40027C9.0963 9.40027 8.77527 9.493 8.57031 9.59949C8.77525 9.70605 9.09605 9.79968 9.5 9.79968C9.90344 9.79968 10.2237 9.70589 10.4287 9.59949C10.2237 9.49317 9.9032 9.40027 9.5 9.40027ZM5.50391 6.13171C8.14459 4.6228 10.8554 4.6228 13.4961 6.13171C14.3394 6.61357 15.1708 6.89182 16 6.97253V8.9823C14.8291 8.90001 13.6598 8.52852 12.5039 7.86804C11.844 7.49097 11.1909 7.23871 10.541 7.1073L12.9541 7.07996L13.1455 7.078L13 6.99988C10.6667 5.66664 8.33325 5.66664 6 6.99988L5.69531 7.16199L6.08984 7.15808L8.33594 7.13269C7.72667 7.27033 7.11442 7.51473 6.49609 7.86804C4.3518 9.09333 2.16165 9.32308 0 8.55847V6.39343C1.84813 7.27897 3.64605 7.19332 5.50391 6.13171ZM3.5 2.99988C4.88036 2.99988 5.99943 3.71614 6 4.59949L5.9873 4.76355C5.85914 5.57026 4.79431 6.20007 3.5 6.20007L3.24414 6.19128C1.98372 6.10927 1.00013 5.42778 1 4.59949C1.00057 3.71614 2.11964 2.99988 3.5 2.99988ZM3.5 4.40027C3.0963 4.40027 2.77527 4.493 2.57031 4.59949C2.77525 4.70605 3.09605 4.79968 3.5 4.79968C3.90344 4.79968 4.22374 4.70589 4.42871 4.59949C4.22372 4.49317 3.9032 4.40027 3.5 4.40027ZM0 0.440308C2.16146 -0.324109 4.35196 -0.0934662 6.49609 1.13171C7.11436 1.485 7.72673 1.72844 8.33594 1.86609L6.08984 1.8407L5.69531 1.83679C5.79634 1.88952 5.89897 1.94215 6 1.99988C8.18746 3.24983 10.375 3.32796 12.5625 2.23425L13 1.99988C13.048 1.97247 13.0975 1.94804 13.1455 1.92175L12.9541 1.91882L10.541 1.89148C11.1909 1.76005 11.8441 1.50877 12.5039 1.13171C13.6598 0.471237 14.8291 0.0987529 16 0.0164795V2.02722C15.1709 2.10793 14.3393 2.3862 13.4961 2.86804C10.8554 4.377 8.14463 4.377 5.50391 2.86804C3.64612 1.80649 1.84804 1.72087 0 2.60632V0.440308Z" fill="#94DCFB"/>
</svg>
