<svg width="24" height="24" viewBox="0 0 24 24" fill="none" xmlns="http://www.w3.org/2000/svg">
<g clip-path="url(#clip0_63_47)">
<circle cx="12" cy="12" r="12" fill="#33A02C"/>
<path d="M24 12.1113C24 18.6773 18.6274 24 12 24C5.37258 24 0 18.6773 0 12.1113C0.989815 12.1113 2.53535 16.5 6 12.7718C9.46465 9.04352 10 16.5 14 12.7718C18 9.04353 20.5 13 20.5 13C20.5 13 23.2884 14.5002 24 12.1113Z" fill="#426373"/>
<path d="M8.49201 4.95104C8.56924 4.93973 8.78374 4.94567 8.96771 4.96258C9.15313 4.98199 9.47253 4.98394 9.67802 4.96846L10.0527 4.9385L10.2584 5.28896C10.7033 6.05373 11.1404 6.43365 11.7237 6.55612C11.9799 6.61117 12.2487 6.61242 12.5235 6.56027C13.0511 6.45864 13.8011 6.11548 14.5178 5.64509C14.7669 5.48464 14.9787 5.35239 14.9931 5.35407C15.0085 5.35181 15.2423 5.73931 15.5161 6.21352L16.0118 7.07209L15.7781 7.20701C15.6524 7.27954 15.4511 7.41243 15.3366 7.49849C13.7275 8.70373 13.5198 10.2879 14.6513 12.7294L14.82 13.0913L14.6958 13.143C13.9709 13.4484 13.0837 14.0472 12.1188 14.8771C11.9298 15.0428 11.7701 15.1783 11.7676 15.1797C11.7626 15.1826 11.7297 15.1084 11.6919 15.0138C11.6053 14.7942 11.2628 14.2532 11.0843 14.0601C10.7615 13.704 10.364 13.4044 9.9365 13.192C9.65316 13.0494 8.98643 12.8753 8.69109 12.8627C8.56497 12.859 8.45933 12.8501 8.45645 12.8451C8.45357 12.8401 8.51055 12.7473 8.57973 12.6409C8.73386 12.4088 8.85599 12.1619 8.96404 11.8732C9.00661 11.7555 9.04778 11.6585 9.05281 11.6556C9.05783 11.6527 9.31117 11.6795 9.61301 11.7148C10.1147 11.7713 10.1757 11.7726 10.2737 11.7161C10.3994 11.6435 10.4566 11.5106 10.4144 11.3853C10.3852 11.3056 10.364 11.2979 9.62841 11.2134C8.83497 11.1158 8.76631 11.0955 8.7082 10.9194C8.64395 10.7269 8.83869 10.5013 9.05788 10.5212L9.1531 10.5294L9.13445 10.3173C9.12385 10.2002 9.10601 10.0475 9.09548 9.97702L9.07767 9.84753L9.51022 9.83075C10.0164 9.80805 10.113 9.77225 10.1634 9.58676C10.1859 9.50389 10.18 9.44735 10.1455 9.38745C10.0979 9.30509 10.0954 9.30654 9.37688 9.33868C8.9562 9.3586 8.61344 9.35682 8.55521 9.33719C8.34851 9.26352 8.29206 9.00326 8.44918 8.84599C8.51303 8.78251 8.55216 8.76324 8.66317 8.7524C8.76375 8.74092 8.79929 8.72705 8.79386 8.70024C8.7888 8.67986 8.74439 8.53911 8.69529 8.38443C8.64763 8.23225 8.60754 8.09899 8.60969 8.09109C8.61039 8.08071 8.82589 8.03615 9.08558 7.99271C9.58951 7.90809 9.63618 7.88447 9.69771 7.71251C9.74387 7.58935 9.6692 7.39619 9.58551 7.4079C9.5521 7.41388 9.2177 7.46718 8.83984 7.53226C8.06076 7.66259 7.99178 7.65916 7.88947 7.48195C7.83327 7.38461 7.82998 7.34991 7.86539 7.24294C7.90544 7.12664 7.91764 7.11294 8.0555 7.04998L8.20486 6.98372L8.03273 6.49408C7.93674 6.22337 7.85402 5.93502 7.84634 5.84628C7.8306 5.66235 7.89487 5.40229 7.98951 5.26445C8.09024 5.11977 8.3196 4.97737 8.49201 4.95104Z" fill="#BEECFF"/>
<path d="M10.9321 4.65702C11.0237 4.62412 11.5155 4.35017 12.1638 3.97589C13.3645 3.27601 13.4492 3.23707 13.6519 3.3097C13.831 3.37606 13.9022 3.4647 14.3197 4.15878C14.6853 4.76301 14.7131 4.81687 14.6829 4.85755C14.6137 4.94077 13.4816 5.61437 13.1804 5.74835C12.0606 6.25178 11.414 6.08931 10.8531 5.15853C10.6226 4.78247 10.6269 4.78996 10.7063 4.74748C10.7479 4.72677 10.8481 4.68557 10.9321 4.65702Z" fill="#BEECFF"/>
<path d="M16.3129 7.57044C16.328 7.58501 16.4767 7.80198 16.6456 8.05389C16.8105 8.30475 17.1926 8.85623 17.4932 9.27832C18.1648 10.2151 18.3913 10.5901 18.3891 10.7545C18.3857 10.9228 18.3073 11.0945 18.1663 11.2391C17.9321 11.4775 15.9406 12.624 15.4246 12.8154C15.3445 12.845 15.3391 12.8415 15.2818 12.7248C15.1251 12.4127 14.8708 11.804 14.7737 11.514C14.2139 9.80728 14.5112 8.76708 15.8276 7.84399C16.1857 7.59394 16.2812 7.53881 16.3129 7.57044Z" fill="#BEECFF"/>
<path d="M8.23551 13.2629C8.70572 13.2629 9.64613 13.4567 10.1163 13.9269C10.1163 13.9269 11.0561 14.8675 11.0563 15.3376C11.0723 15.5094 10.6321 15.7776 10.5861 15.8078C10.5214 15.858 9.65079 16.5502 9.21638 16.7113C8.70853 16.9011 7.69531 17.1666 7.27963 17.2183C6.04175 17.374 5.22306 17.11 5.06045 16.5031C4.89561 15.8879 5.00802 15.2313 5.36094 14.7548C5.67667 14.3301 6.12724 14.0273 7.1269 13.5655C7.63476 13.331 8.02504 13.2629 8.23551 13.2629Z" fill="#BEECFF"/>
<path d="M11.1966 16.2275C9.44977 17.5759 6.84717 17.832 5.95586 17.6701C5.84875 17.6485 5.75474 17.6379 5.74326 17.6415C5.70269 17.6649 5.70978 17.806 5.75794 17.8894C5.84489 18.04 6.08548 18.2811 6.24955 18.3779C6.4358 18.4897 6.91235 18.7276 7.1591 18.7334C7.3853 18.7387 7.4439 18.5659 7.44335 18.5816C7.44421 18.507 7.47028 18.3935 7.51873 18.3779C7.60504 18.3513 8.03349 18.2577 8.1105 18.2675C8.13107 18.268 8.18747 18.3188 8.23506 18.3779C8.29991 18.4609 8.33425 18.4658 8.38751 18.4721C8.47017 18.4875 8.50699 18.4762 8.64442 18.4875C8.70527 18.4925 9.54128 18.3656 9.74642 18.2675L9.92957 18.1713L9.92335 18.0294C9.90871 17.9514 9.9133 17.8715 9.92957 17.8528C9.94838 17.8327 10.4416 17.7317 10.5861 17.6482C10.6942 17.5858 10.6934 17.6981 10.7987 17.8103C10.8313 17.8443 10.8542 17.8682 10.8822 17.8783C10.9493 17.9026 11.0451 17.8472 11.3707 17.6592C11.68 17.4807 11.7977 17.4034 11.8046 17.3686C11.8093 17.3473 11.7984 17.264 11.7826 17.1898L11.7512 17.0534L12.0396 16.8622C12.2358 16.7335 12.3461 16.6729 12.3733 16.6788C12.3965 16.6839 12.4552 16.7211 12.5101 16.7636L12.6068 16.8375L12.7296 16.7573C12.7967 16.7155 13.1522 16.4237 13.5188 16.1101C14.669 15.1278 15.0822 14.8306 15.3271 14.8097C15.3989 14.8053 15.5641 14.8397 15.7234 14.8929L15.9978 14.9878L16.3336 14.7847L16.6707 14.5839L16.6395 14.4011L16.6083 14.2183L16.9212 14.0283L17.2341 13.8384L17.3859 13.9608L17.5378 14.0833L17.8384 13.9189L18.1391 13.7546L18.103 13.5808L18.0643 13.4085L18.3889 13.2212L18.7159 13.0323L18.8494 13.1406L18.9829 13.2489L19.2111 13.1171C19.3923 13.0094 19.4529 12.9621 19.5138 12.8744C19.597 12.7491 19.6602 12.5366 19.635 12.4461C19.6266 12.4139 19.4646 12.1274 19.2788 11.8115L18.9368 11.2366L18.8747 11.2756C18.8406 11.2984 18.7133 11.4058 18.5912 11.5165C18.3786 11.7103 18.3267 11.7433 17.381 12.2893C16.4023 12.8544 16.1319 12.995 15.2444 13.39C14.9762 13.5109 14.6385 13.6873 14.2329 13.9215C13.523 14.3314 13.3638 14.448 12.3025 15.3326C11.9118 15.657 11.4136 16.059 11.1966 16.2275Z" fill="#BEECFF"/>
</g>
<defs>
<clipPath id="clip0_63_47">
<rect width="24" height="24" fill="white"/>
</clipPath>
</defs>
</svg>
