<svg width="14" height="14" viewBox="0 0 14 14" fill="none" xmlns="http://www.w3.org/2000/svg">
<g clip-path="url(#clip0_86_4)">
<path d="M5 1L1 4.5L5 8V6H9V8L13 4.5L9 1V3H5V1Z" fill="#94DCFB"/>
<path d="M0 9C0.7479 9 2.134 11 2.8002 11C3.42442 11 4.8945 9 5.6004 9C6.3063 9 7.7776 11 8.4006 11C9.14966 11 10.5299 9 11.1997 9C11.9476 8.971 13.4189 11 13.9999 11V14C13.2952 14 11.8647 12 11.1997 12C10.5358 12 9.1054 14 8.4006 14C7.73088 14 6.3063 12 5.6004 12C4.88984 12 3.4664 14 2.8002 14C2.05347 14 0.707 12 0 12L0 9Z" fill="#94DCFB"/>
</g>
<defs>
<clipPath id="clip0_86_4">
<rect width="14" height="14" fill="white"/>
</clipPath>
</defs>
</svg>
