<svg width="16" height="16" viewBox="0 0 16 16" fill="none" xmlns="http://www.w3.org/2000/svg">
<circle cx="8" cy="8" r="7.5" fill="#BEECFF" stroke="#426373"/>
<path d="M1.04785 11.9563C3.11226 11.1887 5.1921 11.391 7.24805 12.5657C9.42759 13.8111 11.5724 13.8111 13.752 12.5657C14.142 12.3428 14.5332 12.1552 14.9248 12.0022C14.5322 12.6801 14.0436 13.2943 13.4766 13.8274C11.2404 14.8389 8.98226 14.7092 6.75195 13.4349C5.02874 12.4502 3.32831 12.247 1.61426 12.8196C1.40701 12.5455 1.21898 12.2564 1.04785 11.9563Z" fill="#426373"/>
<path fill-rule="evenodd" clip-rule="evenodd" d="M10.5 9.00029C11.8803 9.00029 12.9993 9.71664 13 10.5999L12.9873 10.764C12.8591 11.5706 11.7943 12.2005 10.5 12.2005L10.2441 12.1917C9.06784 12.1152 8.13237 11.5168 8.0127 10.764L8 10.5999C8.00072 9.71664 9.11973 9.00029 10.5 9.00029ZM10.5 10.0003C9.97187 10.0003 9.54008 10.1391 9.27148 10.3108C9.13958 10.3953 9.06572 10.4751 9.03027 10.5286C9.00114 10.5728 8.99999 10.5954 9 10.5999C8.99992 10.6027 8.99957 10.6256 9.03027 10.6722C9.0657 10.7257 9.13963 10.8045 9.27148 10.889C9.54005 11.0608 9.97161 11.2005 10.5 11.2005C11.0284 11.2005 11.4599 11.0608 11.7285 10.889C11.8604 10.8045 11.9343 10.7257 11.9697 10.6722C12.0004 10.6256 12.0001 10.6027 12 10.5999C12 10.5954 11.9989 10.5728 11.9697 10.5286C11.9343 10.4751 11.8604 10.3953 11.7285 10.3108C11.4599 10.1391 11.0281 10.0003 10.5 10.0003Z" fill="#426373"/>
<path fill-rule="evenodd" clip-rule="evenodd" d="M4.5 4.00029C5.88027 4.00029 6.99928 4.71663 7 5.5999L6.9873 5.76396C6.85907 6.57063 5.79426 7.20049 4.5 7.20049L4.24414 7.1917C3.06784 7.11515 2.13237 6.51678 2.0127 5.76396L2 5.5999C2.00072 4.71663 3.11973 4.00029 4.5 4.00029ZM4.5 5.00029C3.97187 5.00029 3.54008 5.13911 3.27148 5.31084C3.13958 5.39527 3.06572 5.4751 3.03027 5.52861C3.00114 5.57277 2.99999 5.59536 3 5.5999C2.99992 5.60274 2.99957 5.6256 3.03027 5.67217C3.0657 5.72566 3.13963 5.80454 3.27148 5.88896C3.54005 6.06081 3.97161 6.20049 4.5 6.20049C5.02839 6.20049 5.45995 6.06081 5.72852 5.88896C5.86037 5.80454 5.9343 5.72566 5.96973 5.67217C6.00043 5.6256 6.00008 5.60274 6 5.5999C6.00001 5.59536 5.99886 5.57277 5.96973 5.52861C5.93428 5.4751 5.86042 5.39527 5.72852 5.31084C5.45992 5.13911 5.02813 5.00029 4.5 5.00029Z" fill="#426373"/>
<path d="M3.33496 1.50224C4.64226 1.46937 5.94996 1.82404 7.24805 2.56572C9.42759 3.81113 11.5724 3.81113 13.752 2.56572C13.7774 2.55118 13.8036 2.53797 13.8291 2.52373C14.0617 2.77123 14.2786 3.03333 14.4785 3.30889C14.4019 3.3496 14.3247 3.39105 14.248 3.43486C11.7612 4.85579 9.23879 4.85579 6.75195 3.43486C5.16115 2.52588 3.58948 2.28216 2.00879 2.70049C2.40446 2.25352 2.8493 1.85153 3.33496 1.50224Z" fill="#426373"/>
<path d="M6.75195 7.56572C9.23874 6.14486 11.7613 6.14486 14.248 7.56572C14.8313 7.89901 15.4125 8.14111 15.9922 8.29521C15.9798 8.63647 15.9464 8.97202 15.8926 9.30107C15.1775 9.1274 14.4628 8.84105 13.752 8.43486C11.5725 7.18952 9.42753 7.18952 7.24805 8.43486C5.17612 9.61872 2.14205 9.78911 0.0619301 9.00029L0 8C1.92253 8.84859 4.82312 8.66787 6.75195 7.56572Z" fill="#426373"/>
</svg>
