<svg width="16" height="16" viewBox="0 0 16 16" fill="none" xmlns="http://www.w3.org/2000/svg">
<g clip-path="url(#clip0_1_12)">
<mask id="path-1-outside-1_1_12" maskUnits="userSpaceOnUse" x="0" y="5" width="23" height="4" fill="black">
<rect fill="white" y="5" width="23" height="4"/>
<path d="M1 7C3.33333 8.33333 5.66667 8.33333 8 7C10.3333 5.66667 12.6667 5.66667 15 7C17.3333 8.33333 19.6667 8.33333 22 7"/>
</mask>
<path d="M1 7L0.503861 7.86824C3.14463 9.37725 5.85537 9.37725 8.49614 7.86824L8 7L7.50386 6.13176C5.47796 7.28941 3.52204 7.28941 1.49614 6.13176L1 7ZM8 7L8.49614 7.86824C10.522 6.71059 12.478 6.71059 14.5039 7.86824L15 7L15.4961 6.13176C12.8554 4.62275 10.1446 4.62275 7.50386 6.13176L8 7ZM15 7L14.5039 7.86824C17.1446 9.37725 19.8554 9.37725 22.4961 7.86824L22 7L21.5039 6.13176C19.478 7.28941 17.522 7.28941 15.4961 6.13176L15 7Z" fill="black" mask="url(#path-1-outside-1_1_12)"/>
<mask id="path-3-outside-2_1_12" maskUnits="userSpaceOnUse" x="0" y="0" width="23" height="4" fill="black">
<rect fill="white" width="23" height="4"/>
<path d="M1 2C3.33333 0.666667 5.66667 0.666667 8 2C10.3333 3.33333 12.6667 3.33333 15 2C17.3333 0.666667 19.6667 0.666667 22 2"/>
</mask>
<path d="M1 2L1.49614 2.86824C3.52204 1.71059 5.47796 1.71059 7.50386 2.86824L8 2L8.49614 1.13176C5.85537 -0.377252 3.14463 -0.377252 0.503861 1.13176L1 2ZM8 2L7.50386 2.86824C10.1446 4.37725 12.8554 4.37725 15.4961 2.86824L15 2L14.5039 1.13176C12.478 2.28941 10.522 2.28941 8.49614 1.13176L8 2ZM15 2L15.4961 2.86824C17.522 1.71059 19.478 1.71059 21.5039 2.86824L22 2L22.4961 1.13176C19.8554 -0.377252 17.1446 -0.377252 14.5039 1.13176L15 2Z" fill="black" mask="url(#path-3-outside-2_1_12)"/>
<mask id="path-5-outside-3_1_12" maskUnits="userSpaceOnUse" x="0" y="10" width="23" height="4" fill="black">
<rect fill="white" y="10" width="23" height="4"/>
<path d="M1 12C3.33333 10.6667 5.66667 10.6667 8 12C10.3333 13.3333 12.6667 13.3333 15 12C17.3333 10.6667 19.6667 10.6667 22 12"/>
</mask>
<path d="M1 12L1.49614 12.8682C3.52204 11.7106 5.47796 11.7106 7.50386 12.8682L8 12L8.49614 11.1318C5.85537 9.62275 3.14463 9.62275 0.503861 11.1318L1 12ZM8 12L7.50386 12.8682C10.1446 14.3773 12.8554 14.3773 15.4961 12.8682L15 12L14.5039 11.1318C12.478 12.2894 10.522 12.2894 8.49614 11.1318L8 12ZM15 12L15.4961 12.8682C17.522 11.7106 19.478 11.7106 21.5039 12.8682L22 12L22.4961 11.1318C19.8554 9.62275 17.1446 9.62275 14.5039 11.1318L15 12Z" fill="black" mask="url(#path-5-outside-3_1_12)"/>
<path d="M5.00001 5.47272C5.92049 5.47272 6.66668 5.08199 6.66668 4.59999C6.66668 4.118 5.92049 3.72726 5.00001 3.72726C4.07954 3.72726 3.33334 4.118 3.33334 4.59999C3.33334 5.08199 4.07954 5.47272 5.00001 5.47272Z" stroke="black" stroke-width="0.5"/>
<path d="M5 6.2C6.65685 6.2 8 5.48366 8 4.6C8 3.71634 6.65685 3 5 3C3.34315 3 2 3.71634 2 4.6C2 5.48366 3.34315 6.2 5 6.2Z" stroke="black" stroke-width="0.5"/>
<path d="M12 10.4727C12.9205 10.4727 13.6667 10.082 13.6667 9.59999C13.6667 9.118 12.9205 8.72726 12 8.72726C11.0795 8.72726 10.3333 9.118 10.3333 9.59999C10.3333 10.082 11.0795 10.4727 12 10.4727Z" stroke="black" stroke-width="0.5"/>
<path d="M12 11.2C13.6569 11.2 15 10.4837 15 9.6C15 8.71634 13.6569 8 12 8C10.3431 8 9 8.71634 9 9.6C9 10.4837 10.3431 11.2 12 11.2Z" stroke="black" stroke-width="0.5"/>
</g>
<defs>
<clipPath id="clip0_1_12">
<rect width="16" height="16" fill="white"/>
</clipPath>
</defs>
</svg>
