<svg width="18" height="16" viewBox="0 0 18 16" fill="none" xmlns="http://www.w3.org/2000/svg">
<g clip-path="url(#clip0_86_4)">
<path d="M6.42857 1.14285L1.28571 5.14285L6.42857 9.14285V6.85714H11.5714V9.14285L16.7143 5.14285L11.5714 1.14285V3.42857H6.42857V1.14285Z" fill="#94DCFB"/>
<path d="M0 10.2857C0.961586 10.2857 2.74371 12.5714 3.60026 12.5714C4.40283 12.5714 6.29293 10.2857 7.20051 10.2857C8.1081 10.2857 9.99977 12.5714 10.8008 12.5714C11.7638 12.5714 13.5384 10.2857 14.3996 10.2857C15.3612 10.2526 17.2529 12.5714 17.9999 12.5714V16C17.0938 16 15.2546 13.7143 14.3996 13.7143C13.546 13.7143 11.7069 16 10.8008 16C9.9397 16 8.1081 13.7143 7.20051 13.7143C6.28694 13.7143 4.4568 16 3.60026 16C2.64018 16 0.909 13.7143 0 13.7143L0 10.2857Z" fill="#94DCFB"/>
</g>
<defs>
<clipPath id="clip0_86_4">
<rect width="18" height="16" fill="white"/>
</clipPath>
</defs>
</svg>
