<svg width="24" height="24" viewBox="0 0 24 24" fill="none" xmlns="http://www.w3.org/2000/svg">
<g clip-path="url(#clip0_86_4)">
<path d="M12 0.5C18.3513 0.5 23.5 5.64873 23.5 12C23.5 18.3513 18.3513 23.5 12 23.5C5.64873 23.5 0.5 18.3513 0.5 12C0.5 5.64873 5.64873 0.5 12 0.5Z" fill="#94DCFB" stroke="#426373"/>
<path d="M0.5 12.0004C1.62186 12.0004 4.20102 14.4002 5.20033 14.4002C6.13667 14.4002 8.3418 12.0004 9.40066 12.0004C10.4595 12.0004 12.6665 14.4002 13.601 14.4002C14.7246 14.4002 16.795 12.0004 17.7997 12.0004C18.9215 11.9656 22.1285 14.5 23 14.5L22 17.5C20.9429 17.5 18.7972 15.6001 17.7997 15.6001C16.8038 15.6001 14.6582 18 13.601 18C12.5964 18 10.4595 15.6001 9.40066 15.6001C8.33481 15.6001 6.19964 18 5.20033 18C4.08023 18 2.06051 15.6001 1 15.6001L0.5 12.0004Z" fill="#426373"/>
<path d="M8 3L4 7L8 11V8.5H15.4286V11L20 7L15.4286 3V5.5H8V3Z" fill="#426373"/>
</g>
<defs>
<clipPath id="clip0_86_4">
<rect width="24" height="24" fill="white"/>
</clipPath>
</defs>
</svg>
