<svg width="24" height="24" viewBox="0 0 24 24" fill="none" xmlns="http://www.w3.org/2000/svg">
<g clip-path="url(#clip0_63_47)">
<circle cx="12" cy="12" r="11" stroke="#426373" stroke-width="2"/>
<path d="M9.49201 5.95104C9.56924 5.93973 9.78374 5.94567 9.96771 5.96258C10.1531 5.98199 10.4725 5.98394 10.678 5.96846L11.0527 5.9385L11.2584 6.28896C11.7033 7.05373 12.1404 7.43365 12.7237 7.55612C12.9799 7.61117 13.2487 7.61242 13.5235 7.56027C14.0511 7.45864 14.8011 7.11548 15.5178 6.64509C15.7669 6.48464 15.9787 6.35239 15.9931 6.35407C16.0085 6.35181 16.2423 6.73931 16.5161 7.21352L17.0118 8.07209L16.7781 8.20701C16.6524 8.27954 16.4511 8.41243 16.3366 8.49849C14.7275 9.70373 14.5198 11.2879 15.6513 13.7294L15.82 14.0913L15.6958 14.143C14.9709 14.4484 14.0837 15.0472 13.1188 15.8771C12.9298 16.0428 12.7701 16.1783 12.7676 16.1797C12.7626 16.1826 12.7297 16.1084 12.6919 16.0138C12.6053 15.7942 12.2628 15.2532 12.0843 15.0601C11.7615 14.704 11.364 14.4044 10.9365 14.192C10.6532 14.0494 9.98643 13.8753 9.69109 13.8627C9.56497 13.859 9.45933 13.8501 9.45645 13.8451C9.45357 13.8401 9.51055 13.7473 9.57973 13.6409C9.73386 13.4088 9.85599 13.1619 9.96404 12.8732C10.0066 12.7555 10.0478 12.6585 10.0528 12.6556C10.0578 12.6527 10.3112 12.6795 10.613 12.7148C11.1147 12.7713 11.1757 12.7726 11.2737 12.7161C11.3994 12.6435 11.4566 12.5106 11.4144 12.3853C11.3852 12.3056 11.364 12.2979 10.6284 12.2134C9.83497 12.1158 9.76631 12.0955 9.7082 11.9194C9.64395 11.7269 9.83869 11.5013 10.0579 11.5212L10.1531 11.5294L10.1344 11.3173C10.1238 11.2002 10.106 11.0475 10.0955 10.977L10.0777 10.8475L10.5102 10.8307C11.0164 10.8081 11.113 10.7723 11.1634 10.5868C11.1859 10.5039 11.18 10.4474 11.1455 10.3875C11.0979 10.3051 11.0954 10.3065 10.3769 10.3387C9.9562 10.3586 9.61344 10.3568 9.55521 10.3372C9.34851 10.2635 9.29206 10.0033 9.44918 9.84599C9.51303 9.78251 9.55216 9.76324 9.66317 9.7524C9.76375 9.74092 9.79929 9.72705 9.79386 9.70024C9.7888 9.67986 9.74439 9.53911 9.69529 9.38443C9.64763 9.23225 9.60754 9.09899 9.60969 9.09109C9.61039 9.08071 9.82589 9.03615 10.0856 8.99271C10.5895 8.90809 10.6362 8.88447 10.6977 8.71251C10.7439 8.58935 10.6692 8.39619 10.5855 8.4079C10.5521 8.41388 10.2177 8.46718 9.83984 8.53226C9.06076 8.66259 8.99178 8.65916 8.88947 8.48195C8.83327 8.38461 8.82998 8.34991 8.86539 8.24294C8.90544 8.12664 8.91764 8.11294 9.0555 8.04998L9.20486 7.98372L9.03273 7.49408C8.93674 7.22337 8.85402 6.93502 8.84634 6.84628C8.8306 6.66235 8.89487 6.40229 8.98951 6.26445C9.09024 6.11977 9.3196 5.97737 9.49201 5.95104Z" fill="#426373"/>
<path d="M11.9321 5.65702C12.0237 5.62412 12.5155 5.35017 13.1638 4.97589C14.3645 4.27601 14.4492 4.23707 14.6519 4.3097C14.831 4.37606 14.9022 4.4647 15.3197 5.15878C15.6853 5.76301 15.7131 5.81687 15.683 5.85755C15.6137 5.94077 14.4816 6.61437 14.1804 6.74835C13.0606 7.25178 12.414 7.08931 11.8532 6.15853C11.6226 5.78247 11.627 5.78996 11.7063 5.74748C11.7479 5.72677 11.8481 5.68557 11.9321 5.65702Z" fill="#426373"/>
<path d="M17.3129 8.57044C17.328 8.58501 17.4767 8.80198 17.6456 9.05389C17.8105 9.30475 18.1926 9.85623 18.4932 10.2783C19.1648 11.2151 19.3913 11.5901 19.3891 11.7545C19.3857 11.9228 19.3073 12.0945 19.1663 12.2391C18.9321 12.4775 16.9406 13.624 16.4246 13.8154C16.3445 13.845 16.3391 13.8415 16.2818 13.7248C16.1251 13.4127 15.8708 12.804 15.7737 12.514C15.2139 10.8073 15.5112 9.76708 16.8276 8.84399C17.1857 8.59394 17.2812 8.53881 17.3129 8.57044Z" fill="#426373"/>
<path d="M9.23552 14.2629C9.70573 14.2629 10.6461 14.4567 11.1163 14.9269C11.1163 14.9269 12.0561 15.8675 12.0563 16.3376C12.0723 16.5094 11.6321 16.7776 11.5861 16.8078C11.5214 16.858 10.6508 17.5502 10.2164 17.7113C9.70854 17.9011 8.69531 18.1666 8.27964 18.2183C7.04175 18.374 6.22307 18.11 6.06046 17.5031C5.89561 16.8879 6.00802 16.2313 6.36095 15.7548C6.67668 15.3301 7.12725 15.0273 8.12691 14.5655C8.63477 14.331 9.02504 14.2629 9.23552 14.2629Z" fill="#426373"/>
<path d="M12.1966 17.2275C10.4498 18.5759 7.84717 18.832 6.95586 18.6701C6.84875 18.6485 6.75474 18.6379 6.74326 18.6415C6.70269 18.6649 6.70979 18.806 6.75794 18.8894C6.84489 19.04 7.08549 19.2811 7.24956 19.3779C7.43581 19.4897 7.91235 19.7276 8.15911 19.7334C8.3853 19.7387 8.44391 19.5659 8.44335 19.5816C8.44421 19.507 8.47029 19.3935 8.51874 19.3779C8.60505 19.3513 9.0335 19.2577 9.11051 19.2675C9.13107 19.268 9.18747 19.3188 9.23507 19.3779C9.29991 19.4609 9.33425 19.4658 9.38752 19.4721C9.47017 19.4875 9.50699 19.4762 9.64442 19.4875C9.70528 19.4925 10.5413 19.3656 10.7464 19.2675L10.9296 19.1713L10.9234 19.0294C10.9087 18.9514 10.9133 18.8715 10.9296 18.8528C10.9484 18.8327 11.4416 18.7317 11.5861 18.6482C11.6942 18.5858 11.6934 18.6981 11.7987 18.8103C11.8313 18.8443 11.8542 18.8682 11.8822 18.8783C11.9493 18.9026 12.0451 18.8472 12.3707 18.6592C12.6801 18.4807 12.7977 18.4034 12.8046 18.3686C12.8093 18.3473 12.7984 18.264 12.7826 18.1898L12.7512 18.0534L13.0396 17.8622C13.2358 17.7335 13.3462 17.6729 13.3733 17.6788C13.3965 17.6839 13.4552 17.7211 13.5101 17.7636L13.6068 17.8375L13.7296 17.7573C13.7967 17.7155 14.1522 17.4237 14.5188 17.1101C15.669 16.1278 16.0822 15.8306 16.3271 15.8097C16.3989 15.8053 16.5641 15.8397 16.7234 15.8929L16.9979 15.9878L17.3336 15.7847L17.6707 15.5839L17.6395 15.4011L17.6083 15.2183L17.9212 15.0283L18.2341 14.8384L18.386 14.9608L18.5378 15.0833L18.8384 14.9189L19.1391 14.7546L19.103 14.5808L19.0643 14.4085L19.3889 14.2212L19.7159 14.0323L19.8494 14.1406L19.9829 14.2489L20.2111 14.1171C20.3923 14.0094 20.4529 13.9621 20.5138 13.8744C20.597 13.7491 20.6602 13.5366 20.635 13.4461C20.6266 13.4139 20.4646 13.1274 20.2788 12.8115L19.9368 12.2366L19.8747 12.2756C19.8406 12.2984 19.7133 12.4058 19.5912 12.5165C19.3786 12.7103 19.3267 12.7433 18.381 13.2893C17.4023 13.8544 17.1319 13.995 16.2444 14.39C15.9762 14.5109 15.6385 14.6873 15.2329 14.9215C14.523 15.3314 14.3638 15.448 13.3025 16.3326C12.9118 16.657 12.4136 17.059 12.1966 17.2275Z" fill="#426373"/>
</g>
<defs>
<clipPath id="clip0_63_47">
<rect width="24" height="24" fill="white"/>
</clipPath>
</defs>
</svg>
