<svg width="24" height="24" viewBox="0 0 24 24" fill="none" xmlns="http://www.w3.org/2000/svg">
<circle cx="12" cy="12" r="11.5" fill="#BEECFF" stroke="#426373"/>
<path d="M1.57178 17.9345C4.66839 16.783 7.78815 17.0865 10.8721 18.8486C14.1414 20.7167 17.3586 20.7167 20.6279 18.8486C21.2131 18.5143 21.7998 18.2328 22.3872 18.0034C21.7983 19.0202 21.0654 19.9415 20.2148 20.7412C16.8606 22.2583 13.4734 22.0638 10.1279 20.1523C7.54311 18.6753 4.99246 18.3705 2.42139 19.2294C2.11052 18.8182 1.82848 18.3846 1.57178 17.9345Z" fill="#426373"/>
<path fill-rule="evenodd" clip-rule="evenodd" d="M15.75 13.5004C17.8204 13.5004 19.4989 14.575 19.5 15.8999L19.481 16.1459C19.2886 17.356 17.6914 18.3007 15.75 18.3007L15.3662 18.2875C13.6018 18.1727 12.1986 17.2752 12.019 16.1459L12 15.8999C12.0011 14.575 13.6796 13.5004 15.75 13.5004ZM15.75 15.0004C14.9578 15.0004 14.3101 15.2087 13.9072 15.4663C13.7094 15.5929 13.5986 15.7126 13.5454 15.7929C13.5017 15.8592 13.5 15.893 13.5 15.8999C13.4999 15.9041 13.4993 15.9384 13.5454 16.0083C13.5985 16.0885 13.7094 16.2068 13.9072 16.3334C14.3101 16.5912 14.9574 16.8007 15.75 16.8007C16.5426 16.8007 17.1899 16.5912 17.5928 16.3334C17.7906 16.2068 17.9015 16.0885 17.9546 16.0083C18.0007 15.9384 18.0001 15.9041 18 15.8999C18 15.893 17.9983 15.8592 17.9546 15.7929C17.9014 15.7126 17.7906 15.5929 17.5928 15.4663C17.1899 15.2087 16.5422 15.0004 15.75 15.0004Z" fill="#426373"/>
<path fill-rule="evenodd" clip-rule="evenodd" d="M6.75 6.00044C8.82041 6.00044 10.4989 7.07495 10.5 8.39985L10.481 8.64594C10.2886 9.85595 8.69139 10.8007 6.75 10.8007L6.36621 10.7875C4.60175 10.6727 3.19856 9.77518 3.01904 8.64594L3 8.39985C3.00107 7.07495 4.67959 6.00044 6.75 6.00044ZM6.75 7.50044C5.9578 7.50044 5.31012 7.70866 4.90723 7.96626C4.70937 8.09291 4.59858 8.21265 4.54541 8.29292C4.5017 8.35915 4.49998 8.39304 4.5 8.39985C4.49988 8.40411 4.49935 8.43839 4.54541 8.50825C4.59855 8.58849 4.70945 8.7068 4.90723 8.83344C5.31008 9.09121 5.95742 9.30073 6.75 9.30073C7.54258 9.30073 8.18992 9.09121 8.59277 8.83344C8.79055 8.7068 8.90145 8.58849 8.95459 8.50825C9.00065 8.43839 9.00012 8.40411 9 8.39985C9.00002 8.39304 8.9983 8.35915 8.95459 8.29292C8.90142 8.21265 8.79063 8.09291 8.59277 7.96626C8.18988 7.70866 7.5422 7.50044 6.75 7.50044Z" fill="#426373"/>
<path d="M5.00244 2.25337C6.96339 2.20405 8.92494 2.73606 10.8721 3.84858C14.1414 5.7167 17.3586 5.7167 20.6279 3.84858C20.6661 3.82677 20.7055 3.80696 20.7437 3.78559C21.0926 4.15684 21.4179 4.54999 21.7178 4.96333C21.6029 5.0244 21.4871 5.08657 21.3721 5.15229C17.6418 7.28369 13.8582 7.28369 10.1279 5.15229C7.74172 3.78883 5.38422 3.42324 3.01318 4.05073C3.60669 3.38028 4.27396 2.77729 5.00244 2.25337Z" fill="#426373"/>
<path d="M10.1279 11.3486C13.8581 9.21729 17.6419 9.21729 21.3721 11.3486C22.247 11.8485 23.1187 12.2117 23.9883 12.4428C23.9697 12.9547 23.9196 13.458 23.8389 13.9516C22.7663 13.6911 21.6943 13.2616 20.6279 12.6523C17.3587 10.7843 14.1413 10.7843 10.8721 12.6523C7.76418 14.4281 3.21307 14.6837 0.0928952 13.5004L0 12C2.8838 13.2729 7.23469 13.0018 10.1279 11.3486Z" fill="#426373"/>
</svg>
