<svg width="24" height="24" viewBox="0 0 24 24" fill="none" xmlns="http://www.w3.org/2000/svg">
<g clip-path="url(#clip0_86_4)">
<path d="M12 1C18.0751 1 23 5.92487 23 12C23 18.0751 18.0751 23 12 23C5.92487 23 1 18.0751 1 12C1 5.92487 5.92487 1 12 1Z" fill="#94DCFB" stroke="#426373" stroke-width="2"/>
<path d="M2 12.0004C3.06844 12.0004 5.04859 14.4002 6.00031 14.4002C6.89206 14.4002 8.99219 12.0004 10.0006 12.0004C11.0091 12.0004 13.1109 14.4002 14.0009 14.4002C15.071 14.4002 17.0428 12.0004 17.9997 12.0004C19.0681 11.9656 21.17 14.4002 22 14.4002V18C20.9932 18 18.9497 15.6001 17.9997 15.6001C17.0513 15.6001 15.0078 18 14.0009 18C13.0442 18 11.0091 15.6001 10.0006 15.6001C8.98554 15.6001 6.95204 18 6.00031 18C4.93355 18 3.01001 15.6001 2 15.6001L2 12.0004Z" fill="#426373"/>
<path d="M8.5 5L5 8L8.5 11V9.125H15V11L19 8L15 5V6.875H8.5V5Z" fill="#426373"/>
</g>
<defs>
<clipPath id="clip0_86_4">
<rect width="24" height="24" fill="white"/>
</clipPath>
</defs>
</svg>
