<?xml version="1.0" encoding="UTF-8"?>
<svg xmlns="http://www.w3.org/2000/svg" xmlns:xlink="http://www.w3.org/1999/xlink" width="15px" height="15px" viewBox="0 0 15 15" version="1.1">
<g id="surface1">
<path style=" stroke:none;fill-rule:nonzero;fill:rgb(0%,0%,0%);fill-opacity:1;" d="M 7.035156 0.125 C 7.320312 -0.0390625 7.675781 -0.0390625 7.964844 0.125 L 13 2.996094 L 13.125 3.046875 L 13.125 3.074219 L 14.527344 3.875 C 14.898438 4.085938 15.078125 4.519531 14.96875 4.929688 C 14.863281 5.339844 14.492188 5.628906 14.066406 5.628906 L 0.9375 5.625 C 0.511719 5.625 0.140625 5.335938 0.03125 4.929688 C -0.0742188 4.515625 0.105469 4.082031 0.476562 3.871094 L 1.875 3.074219 L 1.875 3.046875 L 2.003906 3 Z M 1.875 6.5625 L 3.75 6.5625 L 3.75 12.1875 L 4.921875 12.1875 L 4.921875 6.5625 L 6.796875 6.5625 L 6.796875 12.1875 L 8.203125 12.1875 L 8.203125 6.5625 L 10.078125 6.5625 L 10.078125 12.1875 L 11.25 12.1875 L 11.25 6.5625 L 13.125 6.5625 L 13.125 12.3125 C 13.140625 12.320312 13.160156 12.335938 13.179688 12.347656 L 14.585938 13.285156 C 14.925781 13.511719 15.082031 13.9375 14.960938 14.335938 C 14.84375 14.730469 14.476562 15 14.0625 15 L 0.9375 15 C 0.523438 15 0.160156 14.730469 0.0390625 14.335938 C -0.078125 13.9375 0.0742188 13.511719 0.417969 13.285156 L 1.824219 12.347656 C 1.84375 12.335938 1.859375 12.324219 1.878906 12.3125 Z M 1.875 6.5625 "/>
</g>
</svg>
