<svg width="23" height="24" viewBox="0 0 23 24" fill="none" xmlns="http://www.w3.org/2000/svg">
<rect x="3" y="23" width="2" height="1" fill="#195016"/>
<rect x="18" y="23" width="2" height="1" fill="#195016"/>
<path d="M2 2.4233C9.23125 0.558547 13.3846 0.492873 21 2.4233V23H2V2.4233Z" fill="#195016"/>
<rect x="5" y="5" width="13" height="15" fill="#195016" stroke="#F5F5F5"/>
<path d="M11.0449 8C12.1282 8 13.1117 8.4218 13.8379 9.10742C13.593 9.0391 13.3353 9.00004 13.0684 9C11.5045 9 10.2364 10.2535 10.2363 11.7998C10.2363 13.3462 11.5044 14.5996 13.0684 14.5996C13.5351 14.5995 13.9742 14.4859 14.3623 14.2881C13.6311 15.3226 12.4182 16 11.0449 16C8.81094 15.9998 7 14.209 7 12C7 9.79099 8.81094 8.00021 11.0449 8Z" fill="#F5F5F5"/>
<line x1="17" y1="11" x2="17" y2="14" stroke="#F5F5F5" stroke-width="2"/>
</svg>
