<svg width="15" height="24" viewBox="0 0 15 24" fill="none" xmlns="http://www.w3.org/2000/svg">
<g clip-path="url(#clip0_63_54)">
<rect x="2" y="23" width="3" height="1" fill="#50446A"/>
<rect x="10" y="23" width="3" height="1" fill="#50446A"/>
<path d="M0 1.48799C5.70888 -0.461519 8.98781 -0.530178 15 1.48799V23H0V1.48799Z" fill="#50446A"/>
<rect x="2" y="4" width="11" height="17" fill="#50446A" stroke="#F5F5F5"/>
<path d="M8.04492 8C9.1657 8 10.1805 8.45063 10.9131 9.17871C10.5962 9.06488 10.2554 9 9.89941 9C8.24269 9.00015 6.89941 10.3432 6.89941 12C6.89941 13.6568 8.24269 14.9999 9.89941 15C10.2556 15 10.5962 14.9342 10.9131 14.8203C10.1804 15.5487 9.16595 16 8.04492 16C5.81094 15.9998 4 14.209 4 12C4 9.79099 5.81094 8.00021 8.04492 8Z" fill="#F5F5F5"/>
<line x1="12" y1="10" x2="12" y2="13" stroke="#F5F5F5" stroke-width="2"/>
</g>
<defs>
<clipPath id="clip0_63_54">
<rect width="15" height="24" fill="white"/>
</clipPath>
</defs>
</svg>
