<svg width="21" height="28" viewBox="0 0 21 28" fill="none" xmlns="http://www.w3.org/2000/svg">
<g clip-path="url(#clip0_115_12)">
<rect width="21" height="28" rx="5" fill="#F5F5F5"/>
<rect x="5" y="25" width="3" height="1" fill="#3C334F"/>
<rect x="13" y="25" width="3" height="1" fill="#3C334F"/>
<path d="M3 3.48799C8.70888 1.53848 11.9878 1.46982 18 3.48799V25H3V3.48799Z" fill="#3C334F"/>
<path d="M5 5.51448C9.37668 3.51039 11.7864 3.47996 16 5.51448V23H5V5.51448Z" stroke="#F5F5F5"/>
<path d="M8 16H13V20.4391C11.1186 22.5532 10.0216 22.4871 8 20.4391V16Z" fill="#F5F5F5"/>
<ellipse cx="10.5" cy="16.5" rx="3.5" ry="2.5" fill="#F5F5F5"/>
<ellipse cx="10.5" cy="10" rx="3.5" ry="4" fill="#F5F5F5"/>
<ellipse cx="10.5" cy="15.5" rx="3.5" ry="1.5" fill="#3C334F" stroke="#F5F5F5"/>
<rect x="6" y="23" width="9" height="1" fill="#F5F5F5"/>
</g>
<defs>
<clipPath id="clip0_115_12">
<rect width="21" height="28" fill="white"/>
</clipPath>
</defs>
</svg>
