<svg width="22" height="31" viewBox="0 0 22 31" fill="none" xmlns="http://www.w3.org/2000/svg">
<rect x="0.5" y="0.5" width="20" height="30" rx="5.5" fill="#F5F5F5" stroke="#0000FF"/>
<rect x="5" y="27" width="3" height="1" fill="#0000FF"/>
<rect x="13" y="27" width="3" height="1" fill="#0000FF"/>
<path d="M10.3887 3.5C12.5104 3.49175 14.6843 3.94709 17.5 4.91113V26.5H3.5V4.90918C6.17012 3.97868 8.27077 3.5083 10.3887 3.5Z" fill="#0000FF" stroke="#0000FF"/>
<rect x="6" y="25" width="9" height="1" fill="#F5F5F5"/>
<path d="M5 6.29391C9.18651 4.59868 11.5911 4.53898 16 6.29391V25H5V6.29391Z" fill="#F5F5F5" stroke="#0000FF"/>
<path d="M8 18H13V22.4391C11.1186 24.5532 10.0216 24.4871 8 22.4391V18Z" fill="#0000FF"/>
<ellipse cx="10.5" cy="18.5" rx="3.5" ry="2.5" fill="#0000FF"/>
<ellipse cx="10.5" cy="12" rx="3.5" ry="4" fill="#0000FF"/>
<ellipse cx="10.5" cy="17.5" rx="3.5" ry="1.5" fill="#F5F5F5" stroke="#0000FF"/>
</svg>
