<svg width="15" height="25" viewBox="0 0 15 25" fill="none" xmlns="http://www.w3.org/2000/svg">
<g clip-path="url(#clip0_63_75)">
<rect x="2" y="24" width="3" height="1" fill="#50446A"/>
<rect x="10" y="24" width="3" height="1" fill="#50446A"/>
<path d="M0 1.55269C5.70888 -0.481586 8.98781 -0.553229 15 1.55269V24H0V1.55269Z" fill="#50446A"/>
<path d="M2 3.59419C6.37668 1.48462 8.78636 1.45259 13 3.59419V22H2V3.59419Z" stroke="#F5F5F5"/>
<path d="M5 15H10V19.4391C8.11855 21.5532 7.02164 21.4871 5 19.4391V15Z" fill="#F5F5F5"/>
<ellipse cx="7.5" cy="15.5" rx="3.5" ry="2.5" fill="#F5F5F5"/>
<ellipse cx="7.5" cy="9" rx="3.5" ry="4" fill="#F5F5F5"/>
<ellipse cx="7.5" cy="14.5" rx="3.5" ry="1.5" fill="#50446A" stroke="#F5F5F5"/>
<rect x="3" y="22" width="9" height="1" fill="#F5F5F5"/>
</g>
<defs>
<clipPath id="clip0_63_75">
<rect width="15" height="25" fill="white"/>
</clipPath>
</defs>
</svg>
