<svg width="23" height="24" viewBox="0 0 23 24" fill="none" xmlns="http://www.w3.org/2000/svg">
<rect x="3" y="23" width="2" height="1" fill="#0000FF"/>
<rect x="18" y="23" width="2" height="1" fill="#0000FF"/>
<path d="M2 2.4233C9.23125 0.558547 13.3846 0.492873 21 2.4233V23H2V2.4233Z" fill="#0000FF"/>
<rect x="5" y="5" width="13" height="15" fill="#0000FF" stroke="#F5F5F5" stroke-width="2"/>
<path d="M11.5 9C11.7365 9 11.9648 9.03435 12.1816 9.0957C11.4943 9.33178 11 9.98261 11 10.75C11 11.7165 11.7835 12.5 12.75 12.5C13.2116 12.5 13.6297 12.3194 13.9424 12.0273C13.7001 13.1546 12.6997 14 11.5 14C10.1193 14 9 12.8807 9 11.5C9 10.1193 10.1193 9 11.5 9Z" fill="#F5F5F5"/>
</svg>
