<svg width="13" height="17" viewBox="0 0 13 17" fill="none" xmlns="http://www.w3.org/2000/svg">
<path d="M6.5 5C6.73646 5 6.96482 5.03435 7.18164 5.0957C6.49435 5.33178 6 5.98261 6 6.75C6 7.7165 6.7835 8.5 7.75 8.5C8.21161 8.5 8.62969 8.31937 8.94238 8.02734C8.70015 9.15462 7.69966 10 6.5 10C5.11929 10 4 8.88071 4 7.5C4 6.11929 5.11929 5 6.5 5Z" fill="black"/>
<rect x="2" y="16" width="2" height="1" fill="black"/>
<rect x="3" y="3" width="7" height="11" stroke="black"/>
<path d="M1 1.97043C5.18651 0.699009 7.59106 0.654232 12 1.97043V16H1V1.97043Z" stroke="black"/>
<rect x="9" y="16" width="2" height="1" fill="black"/>
</svg>
