<svg width="23" height="24" viewBox="0 0 23 24" fill="none" xmlns="http://www.w3.org/2000/svg">
<rect x="3" y="23" width="2" height="1" fill="#6A5B8F"/>
<rect x="18" y="23" width="2" height="1" fill="#6A5B8F"/>
<path d="M2 2.4233C9.23125 0.558547 13.3846 0.492873 21 2.4233V23H2V2.4233Z" fill="#6A5B8F"/>
<rect x="5" y="4" width="13" height="17" fill="#6A5B8F" stroke="#F5F5F5"/>
<path d="M11.5 7C11.7365 7 11.9648 7.03435 12.1816 7.0957C11.4943 7.33178 11 7.98261 11 8.75C11 9.7165 11.7835 10.5 12.75 10.5C13.2116 10.5 13.6297 10.3194 13.9424 10.0273C13.7001 11.1546 12.6997 12 11.5 12C10.1193 12 9 10.8807 9 9.5C9 8.11929 10.1193 7 11.5 7Z" fill="#F5F5F5"/>
</svg>
