<svg width="22" height="31" viewBox="0 0 22 31" fill="none" xmlns="http://www.w3.org/2000/svg">
<g clip-path="url(#clip0_63_52)">
<rect x="1" y="1" width="20" height="29" rx="5" fill="#F5F5F5" stroke="#3C334F"/>
<rect x="5" y="26" width="3" height="1" fill="#3C334F"/>
<rect x="14" y="26" width="3" height="1" fill="#3C334F"/>
<path d="M10.8955 4.5C12.8659 4.49241 14.8856 4.90672 17.5 5.78418V25.5H4.5V5.78223C6.97865 4.93548 8.92922 4.50761 10.8955 4.5Z" fill="#F5F5F5" stroke="#3C334F"/>
<rect x="6" y="7" width="10" height="17" fill="#F5F5F5" stroke="#3C334F"/>
<path d="M12 9C13.0847 9 14.0675 9.43277 14.7881 10.1338C14.5073 10.0469 14.2087 10 13.8994 10C12.2427 10.0001 10.8994 11.3432 10.8994 13C10.8994 14.6568 12.2427 15.9999 13.8994 16C14.2088 16 14.5073 15.9522 14.7881 15.8652C14.0675 16.5665 13.0849 17 12 17C9.79086 17 8 15.2091 8 13C8 10.7909 9.79086 9 12 9Z" fill="#3C334F"/>
<rect x="8" y="19" width="6" height="3" fill="#3C334F"/>
</g>
<defs>
<clipPath id="clip0_63_52">
<rect width="22" height="31" fill="white"/>
</clipPath>
</defs>
</svg>
