<svg width="26" height="26" viewBox="0 0 26 26" fill="none" xmlns="http://www.w3.org/2000/svg">
<g clip-path="url(#clip0_9_195)">
<circle cx="13" cy="13" r="12" stroke="#6A5B8F" stroke-width="2"/>
<rect x="7" y="19" width="2" height="1" fill="#6A5B8F"/>
<rect x="17" y="19" width="2" height="1" fill="#6A5B8F"/>
<path d="M7 5.90573C11.5671 4.71908 14.1902 4.67728 19 5.90573V19H7V5.90573Z" fill="white" stroke="#6A5B8F"/>
<rect x="9" y="7" width="8" height="10" fill="white" stroke="#6A5B8F"/>
<path d="M13.5 9C13.7365 9 13.9648 9.03435 14.1816 9.0957C13.4943 9.33178 13 9.98261 13 10.75C13 11.7165 13.7835 12.5 14.75 12.5C15.2116 12.5 15.6297 12.3194 15.9424 12.0273C15.7001 13.1546 14.6997 14 13.5 14C12.1193 14 11 12.8807 11 11.5C11 10.1193 12.1193 9 13.5 9Z" fill="#6A5B8F"/>
</g>
<defs>
<clipPath id="clip0_9_195">
<rect width="26" height="26" fill="white"/>
</clipPath>
</defs>
</svg>
