<svg width="16" height="16" viewBox="0 0 16 16" xmlns="http://www.w3.org/2000/svg">
<rect x="2" y="15" width="2" height="1" fill="#6A5B8F"/>
<rect x="12" y="15" width="2" height="1" fill="#6A5B8F"/>
<path d="M2 1.90573C6.56711 0.719075 9.19024 0.677283 14 1.90573V15H2V1.90573Z" fill="#F5F5F5" stroke="#6A5B8F"/>
<rect x="4" y="3" width="8" height="10" fill="#F5F5F5" stroke="#6A5B8F"/>
<path d="M8.5 5C8.73646 5 8.96482 5.03435 9.18164 5.0957C8.49435 5.33178 8 5.98261 8 6.75C8 7.7165 8.7835 8.5 9.75 8.5C10.2116 8.5 10.6297 8.31937 10.9424 8.02734C10.7001 9.15462 9.69966 10 8.5 10C7.11929 10 6 8.88071 6 7.5C6 6.11929 7.11929 5 8.5 5Z" fill="#6A5B8F"/>
</svg>
