<svg width="24" height="24" viewBox="0 0 24 24" fill="none" xmlns="http://www.w3.org/2000/svg">
<g clip-path="url(#clip0_9_179)">
<circle cx="12" cy="12" r="11" fill="#F4F4F4" stroke="#33A02C" stroke-width="2"/>
<mask id="path-2-inside-1_9_179" fill="white">
<path d="M1.5 12C1.5 14.7848 2.60625 17.4555 4.57538 19.4246C6.54451 21.3938 9.21523 22.5 12 22.5C14.7848 22.5 17.4555 21.3938 19.4246 19.4246C21.3938 17.4555 22.5 14.7848 22.5 12C22.5 9.21523 21.3938 6.54451 19.4246 4.57538C17.4555 2.60625 14.7848 1.5 12 1.5C9.21523 1.5 6.54451 2.60625 4.57538 4.57538C2.60625 6.54451 1.5 9.21523 1.5 12ZM24 12C24 15.1826 22.7357 18.2348 20.4853 20.4853C18.2348 22.7357 15.1826 24 12 24C8.8174 24 5.76516 22.7357 3.51472 20.4853C1.26428 18.2348 0 15.1826 0 12C0 8.8174 1.26428 5.76516 3.51472 3.51472C5.76516 1.26428 8.8174 0 12 0C15.1826 0 18.2348 1.26428 20.4853 3.51472C22.7357 5.76516 24 8.8174 24 12ZM8.25 6.003H12.693C15.0675 6.003 16.5 7.656 16.5 9.879C16.5 12.12 15.0495 13.746 12.675 13.746H10.176V18H8.25V6.003ZM12.405 12.111C13.7445 12.111 14.5335 11.2935 14.5335 9.879C14.5335 8.4645 13.7445 7.656 12.4035 7.656H10.167V12.111H12.405Z"/>
</mask>
<path d="M1.5 12H-0.5H1.5ZM24 12L26 12L24 12ZM12 24L12 26L12 24ZM0 12L-2 12L0 12ZM12 0L12 -2L12 0ZM8.25 6.003V4.003H6.25V6.003H8.25ZM10.176 13.746V11.746H8.176V13.746H10.176ZM10.176 18V20H12.176V18H10.176ZM8.25 18H6.25V20H8.25V18ZM10.167 7.656V5.656H8.167V7.656H10.167ZM10.167 12.111H8.167V14.111H10.167V12.111ZM1.5 12H-0.5C-0.5 15.3152 0.81696 18.4946 3.16117 20.8388L4.57538 19.4246L5.98959 18.0104C4.39553 16.4163 3.5 14.2543 3.5 12H1.5ZM4.57538 19.4246L3.16117 20.8388C5.50537 23.183 8.68479 24.5 12 24.5V22.5V20.5C9.74566 20.5 7.58365 19.6045 5.98959 18.0104L4.57538 19.4246ZM12 22.5V24.5C15.3152 24.5 18.4946 23.183 20.8388 20.8388L19.4246 19.4246L18.0104 18.0104C16.4163 19.6045 14.2543 20.5 12 20.5V22.5ZM19.4246 19.4246L20.8388 20.8388C23.183 18.4946 24.5 15.3152 24.5 12H22.5H20.5C20.5 14.2543 19.6045 16.4163 18.0104 18.0104L19.4246 19.4246ZM22.5 12H24.5C24.5 8.68479 23.183 5.50537 20.8388 3.16117L19.4246 4.57538L18.0104 5.98959C19.6045 7.58365 20.5 9.74566 20.5 12H22.5ZM19.4246 4.57538L20.8388 3.16117C18.4946 0.81696 15.3152 -0.5 12 -0.5V1.5V3.5C14.2543 3.5 16.4163 4.39553 18.0104 5.98959L19.4246 4.57538ZM12 1.5L12 -0.5C8.68479 -0.5 5.50537 0.81696 3.16117 3.16117L4.57538 4.57538L5.98959 5.98959C7.58365 4.39553 9.74566 3.5 12 3.5L12 1.5ZM4.57538 4.57538L3.16117 3.16117C0.81696 5.50537 -0.5 8.68479 -0.5 12L1.5 12L3.5 12C3.5 9.74566 4.39553 7.58365 5.98959 5.98959L4.57538 4.57538ZM24 12L22 12C22 14.6522 20.9464 17.1957 19.0711 19.0711L20.4853 20.4853L21.8995 21.8995C24.525 19.274 26 15.713 26 12L24 12ZM20.4853 20.4853L19.0711 19.0711C17.1957 20.9464 14.6522 22 12 22L12 24L12 26C15.713 26 19.274 24.525 21.8995 21.8995L20.4853 20.4853ZM12 24L12 22C9.34783 22 6.8043 20.9464 4.92893 19.0711L3.51472 20.4853L2.10051 21.8995C4.72601 24.525 8.28697 26 12 26L12 24ZM3.51472 20.4853L4.92893 19.0711C3.05357 17.1957 2 14.6522 2 12L0 12L-2 12C-2 15.713 -0.525004 19.274 2.10051 21.8995L3.51472 20.4853ZM0 12H2C2 9.34784 3.05357 6.8043 4.92893 4.92893L3.51472 3.51472L2.10051 2.10051C-0.525004 4.72601 -2 8.28697 -2 12H0ZM3.51472 3.51472L4.92893 4.92893C6.8043 3.05357 9.34784 2 12 2L12 0L12 -2C8.28697 -2 4.72601 -0.525004 2.10051 2.10051L3.51472 3.51472ZM12 0L12 2C14.6522 2 17.1957 3.05357 19.0711 4.92893L20.4853 3.51472L21.8995 2.10051C19.274 -0.525004 15.713 -2 12 -2L12 0ZM20.4853 3.51472L19.0711 4.92893C20.9464 6.8043 22 9.34783 22 12L24 12L26 12C26 8.28697 24.525 4.72601 21.8995 2.10051L20.4853 3.51472ZM8.25 6.003V8.003H12.693V6.003V4.003H8.25V6.003ZM12.693 6.003V8.003C13.3942 8.003 13.7992 8.23404 14.0352 8.48307C14.2849 8.74658 14.5 9.19643 14.5 9.879H16.5H18.5C18.5 8.33857 17.9988 6.85042 16.9386 5.73168C15.8648 4.59846 14.3663 4.003 12.693 4.003V6.003ZM16.5 9.879H14.5C14.5 10.5665 14.2832 11.0095 14.0355 11.2675C13.7985 11.5142 13.3869 11.746 12.675 11.746V13.746V15.746C14.3376 15.746 15.8385 15.1648 16.9204 14.0382C17.9915 12.923 18.5 11.4325 18.5 9.879H16.5ZM12.675 13.746V11.746H10.176V13.746V15.746H12.675V13.746ZM10.176 13.746H8.176V18H10.176H12.176V13.746H10.176ZM10.176 18V16H8.25V18V20H10.176V18ZM8.25 18H10.25V6.003H8.25H6.25V18H8.25ZM12.405 12.111V14.111C13.4872 14.111 14.5915 13.7706 15.4167 12.908C16.2305 12.0574 16.5335 10.9489 16.5335 9.879H14.5335H12.5335C12.5335 10.0494 12.5095 10.1407 12.4983 10.1732C12.4887 10.201 12.4914 10.1795 12.5264 10.1428C12.5423 10.1263 12.5593 10.1125 12.575 10.1022C12.5905 10.0922 12.5996 10.0888 12.5981 10.0894C12.5948 10.0906 12.5382 10.111 12.405 10.111V12.111ZM14.5335 9.879H16.5335C16.5335 8.80882 16.2302 7.69954 15.4121 6.84983C14.5841 5.98997 13.4795 5.656 12.4035 5.656V7.656V9.656C12.5397 9.656 12.5986 9.67663 12.6033 9.67839C12.6053 9.67914 12.5964 9.67596 12.5807 9.66586C12.5648 9.65558 12.5473 9.64151 12.5307 9.62429C12.494 9.58621 12.4901 9.56259 12.4989 9.58809C12.5095 9.61861 12.5335 9.70852 12.5335 9.879H14.5335ZM12.4035 7.656V5.656H10.167V7.656V9.656H12.4035V7.656ZM10.167 7.656H8.167V12.111H10.167H12.167V7.656H10.167ZM10.167 12.111V14.111H12.405V12.111V10.111H10.167V12.111Z" fill="#33A02C" mask="url(#path-2-inside-1_9_179)"/>
</g>
<defs>
<clipPath id="clip0_9_179">
<rect width="24" height="24" fill="white"/>
</clipPath>
</defs>
</svg>
