<svg width="24" height="24" viewBox="0 0 24 24" fill="none" xmlns="http://www.w3.org/2000/svg">
<g clip-path="url(#clip0_9_179)">
<circle cx="12" cy="12" r="12" fill="#0000FF"/>
<path d="M8.31064 19V5.90909H13.4754C14.4683 5.90909 15.3142 6.09872 16.0131 6.47798C16.7119 6.85298 17.2446 7.375 17.6111 8.04403C17.9818 8.70881 18.1672 9.47585 18.1672 10.3452C18.1672 11.2145 17.9797 11.9815 17.6047 12.6463C17.2297 13.3111 16.6863 13.8288 15.9747 14.1996C15.2673 14.5703 14.4108 14.7557 13.4051 14.7557H10.1132V12.5376H12.9577C13.4903 12.5376 13.9292 12.446 14.2744 12.2628C14.6238 12.0753 14.8838 11.8175 15.0542 11.4893C15.229 11.157 15.3163 10.7756 15.3163 10.3452C15.3163 9.91051 15.229 9.53125 15.0542 9.20739C14.8838 8.87926 14.6238 8.62571 14.2744 8.44673C13.925 8.26349 13.4818 8.17188 12.9449 8.17188H11.0784V19H8.31064Z" fill="#F5F5F5"/>
</g>
<defs>
<clipPath id="clip0_9_179">
<rect width="24" height="24" fill="white"/>
</clipPath>
</defs>
</svg>
