<svg width="16" height="16" viewBox="0 0 16 16" fill="none" xmlns="http://www.w3.org/2000/svg">
<g clip-path="url(#clip0_1_66)">
<path d="M8.46191 4.50195C9.13189 4.50195 9.63003 4.7318 9.96191 5.08203C10.2972 5.43587 10.5 5.95222 10.5 6.58594C10.5 7.22468 10.2947 7.73828 9.95801 8.08887C9.62403 8.43661 9.12277 8.66402 8.4502 8.66406H6.28418V11.5H6V4.50195H8.46191ZM6.27832 8.57422H8.26953C8.81913 8.57422 9.31753 8.40376 9.67578 8.0293C10.0312 7.65781 10.1895 7.14808 10.1895 6.58594C10.1894 6.02382 10.0313 5.51482 9.6748 5.14453C9.31579 4.77167 8.81693 4.60352 8.26855 4.60352H6.27832V8.57422Z" stroke="#0000FF"/>
</g>
<defs>
<clipPath id="clip0_1_66">
<rect width="16" height="16" fill="white"/>
</clipPath>
</defs>
</svg>
