<svg width="24" height="24" viewBox="0 0 24 24" fill="none" xmlns="http://www.w3.org/2000/svg">
<path d="M12 0C18.6274 0 24 5.37258 24 12C24 18.6274 18.6274 24 12 24C5.37258 24 0 18.6274 0 12C0 5.37258 5.37258 0 12 0ZM12 2C6.47715 2 2 6.47715 2 12C2 17.5228 6.47715 22 12 22C17.5228 22 22 17.5228 22 12C22 6.47715 17.5228 2 12 2ZM19.3633 11.2725C19.3633 13.4816 16.677 17.2725 13.3633 17.2725C13.0223 17.2724 12.6887 17.2297 12.3633 17.1553V19.2725H7.36328V11.2725H19.3633ZM11.3633 10.2725H7.36328V5.27246H11.3633V10.2725ZM19.3633 10.2725H12.3633V9.27246H19.3633V10.2725Z" fill="#33A02C"/>
</svg>
