<?xml version="1.0" encoding="UTF-8"?>
<svg xmlns="http://www.w3.org/2000/svg" xmlns:xlink="http://www.w3.org/1999/xlink" width="15px" height="15px" viewBox="0 0 15 15" version="1.1">
<g id="surface1">
<path style=" stroke:none;fill-rule:nonzero;fill:rgb(0%,0%,0%);fill-opacity:1;" d="M 0.78125 0 C 0.347656 0 0 0.3125 0 0.703125 C 0 1.09375 0.347656 1.40625 0.78125 1.40625 L 1.042969 1.40625 L 1.042969 5.769531 C 0.980469 5.808594 0.917969 5.851562 0.859375 5.898438 C 0.355469 6.285156 0 6.824219 0 7.5 C 0 8.875 0.464844 9.964844 1.203125 10.796875 C 1.667969 11.3125 2.21875 11.710938 2.78125 12.019531 L 2.136719 13.765625 C 2.027344 14.054688 2.082031 14.367188 2.277344 14.609375 C 2.472656 14.851562 2.789062 15 3.125 15 L 11.457031 15 C 11.792969 15 12.105469 14.855469 12.304688 14.609375 C 12.503906 14.363281 12.554688 14.050781 12.449219 13.765625 L 11.804688 12.023438 C 12.371094 11.714844 12.921875 11.316406 13.382812 10.796875 C 14.121094 9.96875 14.585938 8.878906 14.585938 7.503906 C 14.585938 6.824219 14.230469 6.285156 13.726562 5.902344 C 13.667969 5.859375 13.605469 5.816406 13.546875 5.773438 L 13.542969 1.40625 L 13.800781 1.40625 C 14.234375 1.40625 14.582031 1.09375 14.582031 0.703125 C 14.582031 0.3125 14.234375 0 13.800781 0 Z M 12.5 7.507812 C 12.5 7.539062 12.492188 7.585938 12.375 7.671875 C 12.21875 7.792969 11.921875 7.9375 11.421875 8.066406 C 10.433594 8.320312 8.988281 8.4375 7.292969 8.4375 C 5.59375 8.4375 4.148438 8.320312 3.160156 8.0625 C 2.664062 7.933594 2.363281 7.789062 2.207031 7.671875 C 2.09375 7.582031 2.082031 7.535156 2.082031 7.507812 L 2.082031 7.496094 C 2.082031 7.496094 2.082031 7.492188 2.082031 7.492188 C 2.082031 7.464844 2.082031 7.421875 2.207031 7.324219 C 2.363281 7.203125 2.664062 7.058594 3.160156 6.929688 C 4.148438 6.679688 5.597656 6.5625 7.292969 6.5625 C 8.988281 6.5625 10.433594 6.679688 11.421875 6.9375 C 11.921875 7.066406 12.21875 7.210938 12.375 7.332031 C 12.5 7.421875 12.5 7.472656 12.5 7.5 C 12.5 7.5 12.5 7.503906 12.5 7.503906 L 12.5 7.511719 Z M 10.683594 11.25 L 10.675781 11.265625 L 10.675781 11.25 Z M 3.644531 1.875 L 4.6875 1.875 C 4.972656 1.875 5.207031 2.085938 5.207031 2.34375 C 5.207031 2.601562 4.972656 2.8125 4.6875 2.8125 L 3.644531 2.8125 C 3.359375 2.8125 3.125 2.601562 3.125 2.34375 C 3.125 2.085938 3.359375 1.875 3.644531 1.875 Z M 3.644531 1.875 "/>
</g>
</svg>
