<svg width="24" height="24" viewBox="0 0 24 24" fill="none" xmlns="http://www.w3.org/2000/svg">
<circle cx="12" cy="12" r="12" fill="#33A02C"/>
<path d="M14.7832 9.3623C14.7251 9.45924 14.6757 9.48842 14.6631 9.49316C14.6556 9.49594 14.6478 9.49751 14.6328 9.49414C14.6253 9.49243 14.6141 9.48826 14.5996 9.48145C14.5911 9.45892 14.5824 9.43475 14.5732 9.41016L14.502 9.23145L13.5645 9.55469C13.6918 10.164 13.768 10.7607 13.7822 11.2695C13.7969 11.7942 13.7435 12.168 13.6562 12.3711L13.5859 12.5332L13.6338 12.7031L15.4209 19.1143L15.2822 19.208L13.0723 14.1982L12.7578 13.4854L12.2412 14.0684L11.2891 15.1416L11.2021 15.2383L11.1748 15.3652L10.708 17.4717L10.6699 17.6445L10.7012 17.707L10.4775 18.3926L10.1475 19.3975L9.68555 19.2793L10.3652 16.3662L10.4082 16.1807L10.3174 16.0127L10.2969 15.9746L10.5029 15.4756C10.593 15.2569 10.6827 15.0446 10.7744 14.8359L11.0586 14.2168L11.0605 14.2119C11.4212 13.4425 11.8025 12.693 12.2041 11.9404L12.3252 11.7129L12.21 11.4824L11.8779 10.8311C11.7157 10.5162 11.5554 10.2049 11.4023 9.8877L11.002 9.05762L10.5244 9.84668L10.1807 10.4141L10.0234 10.6709L8.01172 11.4727L7.87207 11.5273L7.8584 11.502L7.84375 11.5068L9.09961 10.6729C9.35259 10.5068 9.6092 10.338 9.87109 10.1641L10.0488 10.0459L10.0859 9.83594C10.2201 9.08934 10.4543 8.36963 10.8486 7.68164L11.0273 7.38867V7.3877C11.0385 7.37054 11.0515 7.3512 11.0654 7.33203L11.5068 7.17773L12.3369 7.44043L12.9131 8.16406L13.7734 7.67969L13.749 7.61328C13.6405 7.31836 13.5281 7.01896 13.4102 6.7168C13.4788 6.68294 13.5428 6.66062 13.6035 6.64746L14.7832 9.3623ZM10.6084 4.5C11.004 4.50015 11.3652 4.84771 11.3652 5.30566C11.3652 5.7893 10.999 6.13168 10.6084 6.13184C10.2029 6.13184 9.85162 5.79468 9.85156 5.30566C9.85156 4.84236 10.198 4.5 10.6084 4.5Z" fill="#F5F5F5" stroke="#F5F5F5"/>
</svg>
