<svg width="24" height="24" viewBox="0 0 24 24" fill="none" xmlns="http://www.w3.org/2000/svg">
<g clip-path="url(#clip0_1_84)">
<path d="M12 24C18.6274 24 24 18.6274 24 12C24 5.37258 18.6274 0 12 0C5.37258 0 0 5.37258 0 12C0 18.6274 5.37258 24 12 24Z" fill="#BF383F"/>
<path d="M13.5 4.5H10.5V19.5H13.5V4.5Z" fill="white"/>
<path d="M8.34667 7.12941L4.48296 8.16469C4.21623 8.23616 4.06953 8.55357 4.15529 8.87365L4.62117 10.6123C4.70693 10.9324 4.99269 11.1339 5.25942 11.0625L9.12312 10.0272C9.38986 9.95572 9.53656 9.6383 9.45079 9.31822L8.98492 7.57956C8.89916 7.25948 8.6134 7.05794 8.34667 7.12941Z" fill="white"/>
<path d="M19.8116 11.1335L15.9479 10.0982C15.6811 10.0267 15.3954 10.2283 15.3096 10.5483L14.8437 12.287C14.758 12.6071 14.9047 12.9245 15.1714 12.996L19.0351 14.0312C19.3018 14.1027 19.5876 13.9012 19.6734 13.5811L20.1392 11.8424C20.225 11.5224 20.0783 11.2049 19.8116 11.1335Z" fill="#F5F5F5"/>
<path d="M8.34667 13.1294L4.48296 14.1647C4.21623 14.2362 4.06953 14.5536 4.15529 14.8737L4.62117 16.6123C4.70693 16.9324 4.99269 17.1339 5.25942 17.0625L9.12312 16.0272C9.38986 15.9557 9.53656 15.6383 9.45079 15.3182L8.98492 13.5796C8.89916 13.2595 8.6134 13.0579 8.34667 13.1294Z" fill="white"/>
</g>
<defs>
<clipPath id="clip0_1_84">
<rect width="24" height="24" fill="white"/>
</clipPath>
</defs>
</svg>
