<svg width="26" height="26" viewBox="0 0 26 26" fill="none" xmlns="http://www.w3.org/2000/svg">
<circle cx="13" cy="13" r="12" fill="#33A02C" stroke="#6A5A1E" stroke-width="2"/>
<path d="M7 12.8747L7.56989 12.5004C7.37231 12.6251 7.17339 12.7499 7 12.8747Z" fill="#F5F5F5"/>
<path fill-rule="evenodd" clip-rule="evenodd" d="M11.4099 7.70017C11.4597 7.62557 11.5336 7.5252 11.6089 7.4506L12.5 7.14949L13.8871 7.57539L14.7056 8.57503C14.6957 8.5488 14.6858 8.52257 14.6758 8.49634C14.4869 7.99765 14.298 7.49897 14.086 7.00029C14.5565 6.62457 15.0027 6.47537 15.4731 6.54997L17.1828 10.3749C16.9099 11.125 16.3159 11.3257 15.7957 10.8998C15.78 10.8848 15.7272 10.7467 15.6829 10.6309C15.6552 10.5584 15.6308 10.4946 15.621 10.4753C15.9435 11.9754 16.0175 13.4498 15.6962 14.1755L18 21.5L17 22L13.8629 16.3497L12.6989 17.6247L12.129 20.1259L13.5161 22.825L12.8965 22.9498L11.8306 21.2761L11.4099 22.5253L11.2608 23L9.55242 22.5755L10.5175 18.5498L7.76882 13.6506L7.56989 13.7252L7.32258 13.7998L7 12.8747L7.56989 12.5004C8.12697 12.1308 8.67406 11.782 9.23042 11.4272C9.53988 11.2299 9.8522 11.0308 10.1707 10.8252C10.3696 9.74964 10.7406 8.69981 11.4099 7.70017ZM11.4099 15.875C11.8562 14.95 12.3266 14.0507 12.8212 13.1501C12.6904 12.8953 12.5552 12.6405 12.4192 12.3841C12.2214 12.0112 12.0218 11.6348 11.8306 11.2498L11.4099 11.9253L11.1129 12.4L8.46237 13.4254L10.7164 17.4009C10.9395 16.8746 11.1626 16.3755 11.4099 15.875Z" fill="#F5F5F5"/>
<path fill-rule="evenodd" clip-rule="evenodd" d="M12.9462 5.55033C12.9462 6.42519 12.2527 7.12507 11.4099 7.12507C10.543 7.12507 9.87366 6.42519 9.87366 5.55033C9.87366 4.69989 10.543 4 11.4099 4C12.2527 4 12.9462 4.69989 12.9462 5.55033Z" fill="#F5F5F5"/>
</svg>
