<svg width="24" height="24" viewBox="0 0 24 24" fill="none" xmlns="http://www.w3.org/2000/svg">
<circle cx="12" cy="12" r="11" fill="#F5F5F5" stroke="#33A02C" stroke-width="2"/>
<path d="M7 11.4734L7.46628 11.1582C7.30462 11.2633 7.14186 11.3684 7 11.4734Z" fill="#33A02C"/>
<path fill-rule="evenodd" clip-rule="evenodd" d="M10.6081 7.11593C10.6488 7.05311 10.7093 6.96859 10.7709 6.90577L11.5 6.6522L12.6349 7.01085L13.3046 7.85266C13.2965 7.83057 13.2884 7.80848 13.2802 7.78639C13.1257 7.36644 12.9711 6.9465 12.7977 6.52656C13.1826 6.21017 13.5477 6.08452 13.9326 6.14734L15.3314 9.36836C15.1081 10 14.6221 10.169 14.1965 9.81039C14.1836 9.79775 14.1404 9.68142 14.1042 9.58389C14.0815 9.52284 14.0616 9.46915 14.0535 9.45288C14.3174 10.7162 14.3779 11.9577 14.1151 12.5688L16 19.3272L15.0674 19.9577L12.6151 14.3998L11.6628 15.4734L11.1965 17.5797L12.3314 19.8527L11.8244 19.9577L10.9523 18.5483L10.6081 19.6002L10.4861 20L9.08834 19.6425L9.87793 16.2524L7.62903 12.1268L7.46628 12.1896L7.26393 12.2524L7 11.4734L7.46628 11.1582C7.92207 10.847 8.36969 10.5532 8.82489 10.2545C9.07808 10.0884 9.33362 9.92067 9.59421 9.74757C9.75696 8.8418 10.0605 7.95774 10.6081 7.11593ZM10.6081 14C10.9732 13.221 11.3581 12.4637 11.7628 11.7053C11.6557 11.4908 11.5452 11.2762 11.4339 11.0603C11.2721 10.7463 11.1087 10.4293 10.9523 10.1051L10.6081 10.6739L10.3651 11.0737L8.19648 11.9372L10.0407 15.285C10.2232 14.8418 10.4058 14.4215 10.6081 14Z" fill="#33A02C"/>
<path fill-rule="evenodd" clip-rule="evenodd" d="M11.8651 5.30554C11.8651 6.04226 11.2977 6.63164 10.6081 6.63164C9.89883 6.63164 9.35117 6.04226 9.35117 5.30554C9.35117 4.58938 9.89883 4 10.6081 4C11.2977 4 11.8651 4.58938 11.8651 5.30554Z" fill="#33A02C"/>
</svg>
