<svg width="24" height="24" viewBox="0 0 24 24" fill="none" xmlns="http://www.w3.org/2000/svg">
<circle cx="12" cy="12" r="12" fill="#195016"/>
<path d="M6 11.8747L6.56989 11.5004C6.37231 11.6251 6.17339 11.7499 6 11.8747Z" fill="#FFFFDE"/>
<path fill-rule="evenodd" clip-rule="evenodd" d="M10.4099 6.70017C10.4597 6.62557 10.5336 6.5252 10.6089 6.4506L11.5 6.14949L12.8871 6.57539L13.7056 7.57503C13.6957 7.5488 13.6858 7.52257 13.6758 7.49634C13.4869 6.99765 13.298 6.49897 13.086 6.00029C13.5565 5.62457 14.0027 5.47537 14.4731 5.54997L16.1828 9.37493C15.9099 10.125 15.3159 10.3257 14.7957 9.89984C14.78 9.88483 14.7272 9.74669 14.6829 9.63087C14.6552 9.55837 14.6308 9.49462 14.621 9.4753C14.9435 10.9754 15.0175 12.4498 14.6962 13.1755L17 20.5L16 21L12.8629 15.3497L11.6989 16.6247L11.129 19.1259L12.5161 21.825L11.8965 21.9498L10.8306 20.2761L10.4099 21.5253L10.2608 22L8.55242 21.5755L9.51747 17.5498L6.76882 12.6506L6.56989 12.7252L6.32258 12.7998L6 11.8747L6.56989 11.5004C7.12697 11.1308 7.67406 10.782 8.23042 10.4272C8.53988 10.2299 8.8522 10.0308 9.1707 9.82524C9.36962 8.74964 9.74059 7.69981 10.4099 6.70017ZM10.4099 14.875C10.8562 13.95 11.3266 13.0507 11.8212 12.1501C11.6904 11.8953 11.5552 11.6405 11.4192 11.3841C11.2214 11.0112 11.0218 10.6348 10.8306 10.2498L10.4099 10.9253L10.1129 11.4L7.46237 12.4254L9.7164 16.4009C9.93952 15.8746 10.1626 15.3755 10.4099 14.875Z" fill="#FFFFDE"/>
<path fill-rule="evenodd" clip-rule="evenodd" d="M11.9462 4.55033C11.9462 5.42519 11.2527 6.12507 10.4099 6.12507C9.54301 6.12507 8.87366 5.42519 8.87366 4.55033C8.87366 3.69989 9.54301 3 10.4099 3C11.2527 3 11.9462 3.69989 11.9462 4.55033Z" fill="#FFFFDE"/>
</svg>
