<svg width="16" height="16" viewBox="0 0 16 16" fill="none" xmlns="http://www.w3.org/2000/svg">
<g clip-path="url(#clip0_1_84)">
<path d="M8 16C12.4183 16 16 12.4183 16 8C16 3.58172 12.4183 0 8 0C3.58172 0 0 3.58172 0 8C0 12.4183 3.58172 16 8 16Z" fill="black"/>
<path d="M9 3H7V13H9V3Z" fill="white"/>
<path d="M5.7 5H3.3C3.13431 5 3 5.17909 3 5.4V6.6C3 6.82091 3.13431 7 3.3 7H5.7C5.86569 7 6 6.82091 6 6.6V5.4C6 5.17909 5.86569 5 5.7 5Z" fill="white"/>
<path d="M12.7 7H10.3C10.1343 7 10 7.17909 10 7.4V8.6C10 8.82091 10.1343 9 10.3 9H12.7C12.8657 9 13 8.82091 13 8.6V7.4C13 7.17909 12.8657 7 12.7 7Z" fill="white"/>
<path d="M5.7 9H3.3C3.13431 9 3 9.17909 3 9.4V10.6C3 10.8209 3.13431 11 3.3 11H5.7C5.86569 11 6 10.8209 6 10.6V9.4C6 9.17909 5.86569 9 5.7 9Z" fill="white"/>
</g>
<defs>
<clipPath id="clip0_1_84">
<rect width="16" height="16" fill="white"/>
</clipPath>
</defs>
</svg>
